<svg width="33" height="33" viewBox="0 0 33 33" fill="none" xmlns="http://www.w3.org/2000/svg">
<path d="M11.506 6.58619L7.744 5.33082C7.33058 5.19312 6.89037 5.15564 6.45962 5.22146C6.02888 5.28727 5.61994 5.45451 5.26651 5.70938C4.91308 5.96424 4.62527 6.29945 4.4268 6.68737C4.22834 7.07529 4.1249 7.50482 4.125 7.94057V24.1422C4.12486 24.7196 4.30647 25.2824 4.64408 25.7508C4.9817 26.2192 5.45818 26.5695 6.006 26.7519L11.506 28.5848C12.0701 28.7727 12.6799 28.7727 13.244 28.5848L19.756 26.4151C20.3201 26.2272 20.9299 26.2272 21.494 26.4151L25.256 27.6691C25.6695 27.8068 26.1099 27.8443 26.5407 27.7784C26.9716 27.7125 27.3806 27.5451 27.734 27.2901C28.0875 27.0351 28.3753 26.6997 28.5737 26.3116C28.772 25.9235 28.8753 25.4938 28.875 25.0579V8.85769C28.8752 8.28046 28.6938 7.71779 28.3565 7.24939C28.0191 6.781 27.5429 6.43064 26.9954 6.24794L21.4954 4.41507C20.9309 4.22688 20.3205 4.22688 19.756 4.41507L13.2426 6.58482C12.6785 6.7727 12.0687 6.7727 11.5046 6.58482L11.506 6.58619Z" stroke="#F5D563" stroke-width="2.75" stroke-linecap="round" stroke-linejoin="round"/>
<path d="M12.375 6.875V28.875" stroke="#F5D563" stroke-width="2.75" stroke-linejoin="round"/>
<path d="M20.625 4.125V26.125" stroke="#F5D563" stroke-width="2.75" stroke-linejoin="round"/>
</svg>
