<svg width="30" height="32" viewBox="0 0 30 32" fill="none" xmlns="http://www.w3.org/2000/svg">
<path d="M15 0C13.3518 0 11.7407 0.488741 10.3702 1.40442C8.99984 2.3201 7.93173 3.62159 7.301 5.1443C6.67027 6.66702 6.50525 8.34258 6.82679 9.95909C7.14833 11.5756 7.94201 13.0605 9.10744 14.2259C10.2729 15.3913 11.7577 16.185 13.3742 16.5065C14.9908 16.8281 16.6663 16.6631 18.189 16.0323C19.7117 15.4016 21.0132 14.3335 21.9289 12.9631C22.8446 11.5927 23.3333 9.98151 23.3333 8.33333C23.3333 6.1232 22.4554 4.00358 20.8926 2.44078C19.3298 0.877974 17.2101 0 15 0ZM15 13.3333C14.0111 13.3333 13.0444 13.0401 12.2221 12.4907C11.3999 11.9413 10.759 11.1604 10.3806 10.2467C10.0022 9.33312 9.90315 8.32779 10.0961 7.35788C10.289 6.38798 10.7652 5.49706 11.4645 4.7978C12.1637 4.09854 13.0546 3.62233 14.0245 3.42941C14.9945 3.23648 15.9998 3.3355 16.9134 3.71394C17.827 4.09237 18.6079 4.73324 19.1573 5.55548C19.7068 6.37773 20 7.34443 20 8.33333C20 9.65942 19.4732 10.9312 18.5355 11.8689C17.5979 12.8065 16.3261 13.3333 15 13.3333ZM30 31.6667V30C30 26.9058 28.7708 23.9383 26.5829 21.7504C24.395 19.5625 21.4275 18.3333 18.3333 18.3333H11.6667C8.57247 18.3333 5.60501 19.5625 3.41709 21.7504C1.22916 23.9383 0 26.9058 0 30V31.6667H3.33333V30C3.33333 27.7899 4.21131 25.6702 5.77411 24.1074C7.33691 22.5446 9.45653 21.6667 11.6667 21.6667H18.3333C20.5435 21.6667 22.6631 22.5446 24.2259 24.1074C25.7887 25.6702 26.6667 27.7899 26.6667 30V31.6667H30Z" fill="#FFD233"/>
</svg>
