<svg width="40" height="40" viewBox="0 0 40 40" fill="none" xmlns="http://www.w3.org/2000/svg">
<path d="M2.5 27.5H37.5V30H2.5V27.5Z" fill="#FFD233"/>
<path d="M2.5 32.5H37.5V35H2.5V32.5Z" fill="#FFD233"/>
<path d="M30 12.5C29.5055 12.5 29.0222 12.6466 28.6111 12.9213C28.2 13.196 27.8795 13.5865 27.6903 14.0433C27.5011 14.5001 27.4516 15.0028 27.548 15.4877C27.6445 15.9727 27.8826 16.4181 28.2322 16.7678C28.5819 17.1174 29.0273 17.3555 29.5123 17.452C29.9972 17.5484 30.4999 17.4989 30.9567 17.3097C31.4135 17.1205 31.804 16.8 32.0787 16.3889C32.3534 15.9778 32.5 15.4945 32.5 15C32.5 14.337 32.2366 13.7011 31.7678 13.2322C31.2989 12.7634 30.663 12.5 30 12.5Z" fill="#FFD233"/>
<path d="M20 20C19.0111 20 18.0444 19.7068 17.2222 19.1574C16.3999 18.6079 15.759 17.8271 15.3806 16.9134C15.0022 15.9998 14.9031 14.9945 15.0961 14.0246C15.289 13.0546 15.7652 12.1637 16.4645 11.4645C17.1637 10.7652 18.0546 10.289 19.0246 10.0961C19.9945 9.90315 20.9998 10.0022 21.9134 10.3806C22.827 10.759 23.6079 11.3999 24.1574 12.2222C24.7068 13.0444 25 14.0111 25 15C24.9983 16.3256 24.471 17.5964 23.5337 18.5337C22.5964 19.471 21.3256 19.9983 20 20ZM20 12.5C19.5055 12.5 19.0222 12.6466 18.6111 12.9213C18.2 13.196 17.8795 13.5865 17.6903 14.0433C17.5011 14.5001 17.4516 15.0028 17.548 15.4877C17.6445 15.9727 17.8826 16.4181 18.2322 16.7678C18.5819 17.1174 19.0273 17.3555 19.5123 17.452C19.9972 17.5484 20.4999 17.4989 20.9567 17.3097C21.4135 17.1205 21.804 16.8001 22.0787 16.3889C22.3534 15.9778 22.5 15.4945 22.5 15C22.4993 14.3372 22.2357 13.7017 21.767 13.233C21.2983 12.7643 20.6628 12.5007 20 12.5Z" fill="#FFD233"/>
<path d="M10 12.5C9.50555 12.5 9.0222 12.6466 8.61108 12.9213C8.19995 13.196 7.87952 13.5865 7.6903 14.0433C7.50108 14.5001 7.45157 15.0028 7.54804 15.4877C7.6445 15.9727 7.8826 16.4181 8.23223 16.7678C8.58187 17.1174 9.02732 17.3555 9.51228 17.452C9.99723 17.5484 10.4999 17.4989 10.9567 17.3097C11.4135 17.1205 11.804 16.8 12.0787 16.3889C12.3534 15.9778 12.5 15.4945 12.5 15C12.5 14.337 12.2366 13.7011 11.7678 13.2322C11.2989 12.7634 10.663 12.5 10 12.5Z" fill="#FFD233"/>
<path d="M35 25H5C4.33747 24.9984 3.70254 24.7344 3.23406 24.2659C2.76557 23.7975 2.50165 23.1625 2.5 22.5V7.5C2.50165 6.83747 2.76557 6.20254 3.23406 5.73406C3.70254 5.26557 4.33747 5.00165 5 5H35C35.6625 5.00165 36.2975 5.26557 36.7659 5.73406C37.2344 6.20254 37.4983 6.83747 37.5 7.5V22.5C37.499 23.1627 37.2353 23.798 36.7667 24.2667C36.298 24.7353 35.6627 24.999 35 25ZM35 7.5H5V22.5H35V7.5Z" fill="#FFD233"/>
</svg>
