<svg width="24" height="24" viewBox="0 0 24 24" fill="none" xmlns="http://www.w3.org/2000/svg">
<path d="M22.6086 18.425L17.5274 13.805C17.2872 13.5867 16.9715 13.4703 16.6471 13.4803C16.3227 13.4903 16.0149 13.626 15.7886 13.8588L12.7974 16.935C12.0774 16.7975 10.6299 16.3463 9.13986 14.86C7.64986 13.3688 7.19861 11.9175 7.06486 11.2025L10.1386 8.21C10.3716 7.98391 10.5075 7.67603 10.5176 7.35151C10.5276 7.02699 10.411 6.7113 10.1924 6.47125L5.57361 1.39125C5.35492 1.15045 5.05096 1.00438 4.72631 0.984076C4.40165 0.96377 4.08186 1.07082 3.83486 1.2825L1.12236 3.60875C0.906253 3.82565 0.777264 4.11431 0.759864 4.42C0.741114 4.7325 0.383614 12.135 6.12361 17.8775C11.1311 22.8838 17.4036 23.25 19.1311 23.25C19.3836 23.25 19.5386 23.2425 19.5799 23.24C19.8855 23.2229 20.174 23.0933 20.3899 22.8763L22.7149 20.1625C22.9274 19.9163 23.0352 19.5968 23.0154 19.2721C22.9955 18.9475 22.8495 18.6435 22.6086 18.425V18.425Z" fill="#FFD233"/>
</svg>
