<svg width="40" height="40" viewBox="0 0 40 40" fill="none" xmlns="http://www.w3.org/2000/svg">
<path d="M20.0002 3.33334C10.8102 3.33334 3.3335 10.81 3.3335 20C3.3335 29.19 10.8102 36.6667 20.0002 36.6667C29.1902 36.6667 36.6668 29.19 36.6668 20C36.6668 10.81 29.1902 3.33334 20.0002 3.33334ZM20.0002 33.3333C12.6485 33.3333 6.66683 27.3517 6.66683 20C6.66683 12.6483 12.6485 6.66668 20.0002 6.66668C27.3518 6.66668 33.3335 12.6483 33.3335 20C33.3335 27.3517 27.3518 33.3333 20.0002 33.3333Z" fill="#FFD233"/>
<path d="M21.6668 11.6667H18.3335V21.6667H28.3335V18.3333H21.6668V11.6667Z" fill="#FFD233"/>
</svg>
